<?xml version="1.0" standalone="no"?><!DOCTYPE svg PUBLIC "-//W3C//DTD SVG 1.1//EN" "http://www.w3.org/Graphics/SVG/1.1/DTD/svg11.dtd"><svg t="1658277619692" class="icon" viewBox="0 0 1024 1024" version="1.1" xmlns="http://www.w3.org/2000/svg" p-id="21439" xmlns:xlink="http://www.w3.org/1999/xlink" width="128" height="128"><defs><style type="text/css">@font-face { font-family: feedback-iconfont; src: url("//at.alicdn.com/t/font_1031158_u69w8yhxdu.woff2?t=1630033759944") format("woff2"), url("//at.alicdn.com/t/font_1031158_u69w8yhxdu.woff?t=1630033759944") format("woff"), url("//at.alicdn.com/t/font_1031158_u69w8yhxdu.ttf?t=1630033759944") format("truetype"); }
</style></defs><path d="M927.995 608.077c17.69 0 32.031-14.341 32.031-32.031V477c0-33.653-27.378-61.032-61.031-61.032H127.004c-33.653 0-61.031 27.379-61.031 61.032v99.046c0 17.69 14.355 32.031 32.045 32.031 35.283 0 63.987 28.705 63.987 63.987s-28.705 63.987-64.001 63.987c-17.69 0-32.031 14.341-32.031 32.031v98.557c0 33.653 27.378 61.031 61.031 61.031h771.991c33.653 0 61.031-27.378 61.031-61.031v-98.557c0-17.69-14.341-32.031-32.031-32.031-35.282 0-63.987-28.705-63.987-63.987s28.705-63.987 63.987-63.987z m-32.031 187.982v67.55H130.036v-67.546c55.167-14.251 96.033-64.44 96.033-123.998 0-59.553-40.863-109.741-96.033-123.996v-68.037h765.928v68.039c-55.155 14.259-96.019 64.445-96.019 123.994s40.864 109.735 96.019 123.994zM159.872 384.032c17.69 0 32.031-14.341 32.031-32.032v-64.016h639.925V352c0 17.69 14.341 32.032 32.031 32.032S895.891 369.69 895.891 352v-67.047c0-33.653-27.378-61.032-61.031-61.032H188.872c-33.653 0-61.032 27.379-61.032 61.032V352c0 17.69 14.342 32.032 32.032 32.032zM256.872 191.079c17.69 0 32.032-14.341 32.032-32.032v-31.016h447.924v31.016c0 17.69 14.341 32.032 32.031 32.032s32.031-14.341 32.031-32.032V125c0-33.653-27.378-61.032-61.031-61.032H285.872c-33.653 0-61.031 27.379-61.031 61.032v34.047c0 17.691 14.341 32.032 32.031 32.032z" p-id="21440" fill="#f8b648"></path><path d="M512 544.046c-70.603 0-127.837 57.234-127.837 127.837 0 70.604 57.235 127.838 127.837 127.838 70.603 0 127.837-57.234 127.837-127.838 0-70.603-57.234-127.837-127.837-127.837z m0 191.838c-35.347 0-64-28.654-64-64.001 0-35.346 28.654-64 64-64 35.346 0 64 28.654 64 64 0 35.346-28.654 64.001-64 64.001z" p-id="21441" fill="#f8b648"></path></svg>