<svg t="1658132107221" class="icon" viewBox="0 0 1024 1024" version="1.1" xmlns="http://www.w3.org/2000/svg" p-id="16745" width="200" height="200"><path d="M725.333333 469.333333h42.666667a42.666667 42.666667 0 0 0 42.666667-42.666666V384a42.666667 42.666667 0 0 0-42.666667-42.666667h-42.666667a42.666667 42.666667 0 0 0-42.666666 42.666667v42.666667a42.666667 42.666667 0 0 0 42.666666 42.666666zM256 512h213.333333a42.666667 42.666667 0 0 0 0-85.333333H256a42.666667 42.666667 0 0 0 0 85.333333z m682.666667-341.333333H85.333333a42.666667 42.666667 0 0 0-42.666666 42.666666v597.333334a42.666667 42.666667 0 0 0 42.666666 42.666666h853.333334a42.666667 42.666667 0 0 0 42.666666-42.666666V213.333333a42.666667 42.666667 0 0 0-42.666666-42.666666z m-42.666667 597.333333H128V256h768zM256 682.666667h213.333333a42.666667 42.666667 0 0 0 0-85.333334H256a42.666667 42.666667 0 0 0 0 85.333334z" p-id="16746"></path></svg>