<?xml version="1.0" standalone="no"?><!DOCTYPE svg PUBLIC "-//W3C//DTD SVG 1.1//EN" "http://www.w3.org/Graphics/SVG/1.1/DTD/svg11.dtd"><svg t="1658136093308" class="icon" viewBox="0 0 1024 1024" version="1.1" xmlns="http://www.w3.org/2000/svg" p-id="16363" xmlns:xlink="http://www.w3.org/1999/xlink" width="48" height="48"><defs><style type="text/css">@font-face { font-family: feedback-iconfont; src: url("//at.alicdn.com/t/font_1031158_u69w8yhxdu.woff2?t=1630033759944") format("woff2"), url("//at.alicdn.com/t/font_1031158_u69w8yhxdu.woff?t=1630033759944") format("woff"), url("//at.alicdn.com/t/font_1031158_u69w8yhxdu.ttf?t=1630033759944") format("truetype"); }
</style></defs><path d="M167.936 53.248h688.128c32.768 0.683008 59.904 11.776 81.408 33.28S970.068992 135.168 970.752 167.936v688.128c-0.683008 32.768-11.776 59.904-33.28 81.408S888.832 970.068992 856.064 970.752H167.936c-32.768-0.683008-59.904-11.776-81.408-33.28S53.931008 888.832 53.248 856.064V167.936c0.683008-32.768 11.776-59.904 33.28-81.408S135.168 53.931008 167.936 53.248z m154.624 178.176c-79.188992 53.931008-128.171008 124.928-146.944 212.992s-3.243008 173.056 46.592 254.976c54.612992 78.507008 125.952 127.147008 214.016 145.92s172.715008 2.900992 253.952-47.616c9.556992-5.460992 18.091008-11.604992 25.6-18.432 4.096-3.412992 6.484992-7.508992 7.168-12.288 0.683008-4.779008-0.340992-9.216-3.072-13.312l-15.36-23.552c-7.508992-11.604992-17.579008-18.772992-30.208-21.504-12.628992-2.731008-24.747008-0.340992-36.352 7.168-58.027008 35.499008-118.272 46.592-180.736 33.28S344.404992 701.099008 306.176 645.12c-36.180992-58.027008-47.616-118.272-34.304-180.736S319.828992 350.891008 375.808 311.296c45.056-27.988992 93.184-40.619008 144.384-37.888 51.2 2.731008 97.620992 20.820992 139.264 54.272 1.364992 0.683008 2.388992 2.048 3.072 4.096 3.412992 4.096 4.436992 8.532992 3.072 13.312-1.364992 4.779008-4.096 8.875008-8.192 12.288L455.68 489.472c-11.604992 7.508992-18.772992 17.579008-21.504 30.208-2.731008 12.628992-0.683008 24.747008 6.144 36.352l16.384 24.576c3.412992 4.779008 7.508992 7.68 12.288 8.704s9.556992 0.171008 14.336-2.56l315.392-204.8c8.192-6.827008 10.580992-15.019008 7.168-24.576v-1.024l-15.36-27.648c-54.612992-77.824-125.952-126.123008-214.016-144.896s-172.715008-2.900992-253.952 47.616z m471.04 273.408l-63.488 40.96c-4.779008 3.412992-7.68 7.508992-8.704 12.288s0.171008 9.216 3.584 13.312l40.96 63.488c3.412992 4.779008 7.508992 7.68 12.288 8.704s9.216-0.171008 13.312-3.584l31.744-20.48c13.652992-8.875008 22.016-20.651008 25.088-35.328 3.072-14.676992 0.171008-28.843008-8.704-42.496l-20.48-31.744c-3.412992-4.096-7.508992-6.656-12.288-7.68s-9.216-0.171008-13.312 2.56z" p-id="16364" fill="#ffffff"></path></svg>