<svg t="1658131617137" class="icon" viewBox="0 0 1024 1024" version="1.1" xmlns="http://www.w3.org/2000/svg" p-id="15352" width="200" height="200"><path d="M512 64c-24.9 0-49.8 8.7-69.8 26.2L88.3 433.4c-49.1 42.9-18.7 123.7 46.5 123.7h59.1v332.3c0 39 31.6 70.6 70.7 70.6h134.6c19.9 0 36.1-16.2 36.1-36.2V774.7c0-20 16.2-36.2 36.1-36.2h81.2c19.9 0 36.1 16.2 36.1 36.2v149.1c0 20 16.2 36.2 36.1 36.2h137.3c39 0 70.7-31.6 70.7-70.6V557.1h56.4c65.3 0 95.6-80.8 46.5-123.7L581.8 90.2C561.8 72.7 536.9 64 512 64z" p-id="15353"></path></svg>