<?xml version="1.0" standalone="no"?><!DOCTYPE svg PUBLIC "-//W3C//DTD SVG 1.1//EN" "http://www.w3.org/Graphics/SVG/1.1/DTD/svg11.dtd"><svg t="1658277285738" class="icon" viewBox="0 0 1024 1024" version="1.1" xmlns="http://www.w3.org/2000/svg" p-id="18508" xmlns:xlink="http://www.w3.org/1999/xlink" width="128" height="128"><defs><style type="text/css">@font-face { font-family: feedback-iconfont; src: url("//at.alicdn.com/t/font_1031158_u69w8yhxdu.woff2?t=1630033759944") format("woff2"), url("//at.alicdn.com/t/font_1031158_u69w8yhxdu.woff?t=1630033759944") format("woff"), url("//at.alicdn.com/t/font_1031158_u69w8yhxdu.ttf?t=1630033759944") format("truetype"); }
</style></defs><path d="M972.8 1024H51.2a51.2 51.2 0 0 1-51.2-51.2V51.2a51.2 51.2 0 0 1 51.2-51.2h921.6a51.2 51.2 0 0 1 51.2 51.2v921.6a51.2 51.2 0 0 1-51.2 51.2zM102.4 921.6h819.2V102.4H102.4v819.2z m66.2016-117.4016a51.2 51.2 0 0 1 0-72.3968l204.8-204.8A51.2 51.2 0 0 1 440.32 522.24l169.2928 126.9504 173.3888-173.3888a51.2 51.2 0 0 1 72.3968 72.3968l-204.8 204.8a51.2 51.2 0 0 1-66.9184 4.7616l-169.2928-126.9504-173.3888 173.3888a51.2 51.2 0 0 1-72.3968 0zM460.8 307.2a102.4 102.4 0 1 1 102.4 102.4 102.4 102.4 0 0 1-102.4-102.4z" fill="#f43f5e" p-id="18509"></path></svg>