<?xml version="1.0" standalone="no"?><!DOCTYPE svg PUBLIC "-//W3C//DTD SVG 1.1//EN" "http://www.w3.org/Graphics/SVG/1.1/DTD/svg11.dtd"><svg class="icon" width="200px" height="200.00px" viewBox="0 0 1024 1024" version="1.1" xmlns="http://www.w3.org/2000/svg"><path fill="#333333" d="M704 320v96q0 14.016-8.992 23.008T672 448h-32v-128h-256v128h-32q-14.016 0-23.008-8.992T320 416v-96H192v576h640V320h-128zM320 256q2.016-82.016 56-136T512 64q82.016 2.016 136 56T704 256h160q14.016 0 23.008 8.992T896 288v640q0 14.016-8.992 23.008T864 960H160q-14.016 0-23.008-8.992T128 928V288q0-14.016 8.992-23.008T160 256h160z m64 0h256q-0.992-54.016-37.504-90.496T512 128q-54.016 0.992-90.496 37.504T384 256zM192 704h640v64H192v-64z" /></svg>